<?xml version="1.0" encoding="utf-8"?>
<!-- Svg Vector Icons : http://www.onlinewebfonts.com/icon -->
<!DOCTYPE svg PUBLIC "-//W3C//DTD SVG 1.1//EN" "http://www.w3.org/Graphics/SVG/1.1/DTD/svg11.dtd">
<svg version="1.1" xmlns="http://www.w3.org/2000/svg" xmlns:xlink="http://www.w3.org/1999/xlink" x="0px" y="0px" viewBox="0 0 1000 1000" enable-background="new 0 0 1000 1000" xml:space="preserve">
<g><path d="M147.2,977.8c-34.3,0-63.7-31.9-63.7-73.5V95.8c0-39.2,29.4-73.5,63.7-73.5h705.6c34.3,0,63.7,31.9,63.7,73.5v494.9c0,7.4-2.5,14.7-7.4,22.1L595.5,970.4c-4.9,4.9-9.8,7.4-17.2,7.4H147.2L147.2,977.8z M186.4,76.1c-29.4,0-53.9,29.4-53.9,63.7v720.3c0,34.3,24.5,61.3,53.9,61.3h367.5V634.8c0-39.2,29.4-73.5,63.7-73.5h249.9V139.9c0-34.3-24.5-61.3-53.9-61.3L186.4,76.1L186.4,76.1z M656.8,617.6c-29.4,0-53.9,27-53.9,61.3v198.5l227.9-262.1L656.8,617.6L656.8,617.6z M304,661.7c-14.7,0-24.5-12.3-24.5-29.4c0-17.1,9.8-29.4,24.5-29.4h78.4c14.7,0,24.5,12.3,24.5,29.4c0,17.2-9.8,29.4-24.5,29.4H304L304,661.7z M304,482.9c-14.7,0-24.5-12.3-24.5-29.4c0-14.7,9.8-29.4,24.5-29.4h392c14.7,0,24.5,12.3,24.5,29.4c0,14.7-9.8,29.4-24.5,29.4H304L304,482.9z M304,301.6c-14.7,0-24.5-12.3-24.5-29.4c0-14.7,9.8-29.4,24.5-29.4h392c14.7,0,24.5,12.3,24.5,29.4c0,14.7-9.8,29.4-24.5,29.4H304L304,301.6z"/><path d="M578.4,990H135v-2.5c-36.8-7.3-63.7-41.7-63.7-83.3V95.8c0-46.6,34.3-85.8,75.9-85.8h705.6c41.7,0,76,39.2,76,85.8v494.9c0,9.8-2.5,19.6-9.8,27L605.4,977.8C598,985.1,588.2,990,578.4,990z M159.5,965.5h418.9c4.9,0,7.4,0,9.8-4.9l313.6-357.7c2.5-2.4,4.9-7.3,4.9-12.3V95.8c0-34.3-22.1-61.3-51.5-61.3H147.2c-29.4,0-51.4,26.9-51.4,61.3v808.5c0,34.3,22.1,61.3,51.4,61.3H159.5z M566.1,933.7H186.4c-36.7,0-66.1-34.3-66.1-73.5V139.9c0-41.7,29.4-73.5,66.1-73.5h627.2c36.8,0,66.2,34.3,66.2,73.5v433.6H617.6c-29.4,0-51.5,27-51.5,61.3V933.7z M179.1,90.9c-19.6,4.9-34.3,24.5-34.3,49v720.3c0,27,19.6,49,41.6,49h355.3V634.8c0-46.5,34.3-85.8,76-85.8h237.6V139.9c0-27-19.6-49-41.7-49H179.1z M590.6,911.6V681.3c0-41.7,29.4-73.5,66.2-73.5h200.9L590.6,911.6z M656.8,629.8c-22,0-41.6,22-41.6,49v166.6l191.1-218H656.8V629.8z M382.4,674H304c-19.6,0-36.8-17.2-36.8-41.7c0-22,17.1-41.7,36.8-41.7h78.4c19.6,0,36.7,17.1,36.7,41.7C419.1,656.8,404.5,674,382.4,674z M304,617.6c-7.4,0-12.3,7.4-12.3,17.2s4.9,17.1,12.3,17.1h78.4c7.4,0,12.3-7.3,12.3-17.1s-4.9-17.2-12.3-17.2H304z M696,495.1H304c-19.6,0-36.8-17.2-36.8-41.6c0-22.1,17.1-41.7,36.8-41.7h392c19.6,0,36.8,17.1,36.8,41.7C732.8,475.5,718,495.1,696,495.1z M304,436.3c-7.4,0-12.3,7.4-12.3,17.2c0,9.8,4.9,17.1,12.3,17.1h392c7.4,0,12.3-7.4,12.3-17.1c0-9.8-4.9-17.2-12.3-17.2H304z M696,313.8H304c-19.6,0-36.8-17.2-36.8-41.7c0-22,17.1-41.6,36.8-41.6h392c19.6,0,36.8,17.1,36.8,41.6C732.8,296.6,718,313.8,696,313.8z M304,257.4c-7.4,0-12.3,7.4-12.3,17.2c0,9.8,4.9,17.1,12.3,17.1h392c7.4,0,12.3-7.4,12.3-17.1s-4.9-17.2-12.3-17.2H304z" style="fill:#333"/></g>
</svg>