<?xml version="1.0" standalone="no"?>
<!DOCTYPE svg PUBLIC "-//W3C//DTD SVG 20010904//EN"
 "http://www.w3.org/TR/2001/REC-SVG-20010904/DTD/svg10.dtd">
<svg version="1.0" xmlns="http://www.w3.org/2000/svg"
 width="3888.000000pt" height="2604.000000pt" viewBox="0 0 3888.000000 2604.000000"
 preserveAspectRatio="xMidYMid meet">
<g transform="translate(0.000000,2604.000000) scale(0.100000,-0.100000)"
fill="#000000" stroke="none">
<path d="M14015 26034 c-27 -2 -138 -8 -245 -14 -1094 -61 -2235 -282 -3310
-639 -1697 -565 -3241 -1462 -4588 -2667 l-44 -39 639 3 c387 1 663 -1 703 -7
134 -21 252 -108 308 -229 l27 -57 0 -640 0 -640 -32 -67 c-54 -115 -157 -194
-282 -218 -59 -11 -517 -12 -1111 -1 l-375 6 -58 28 c-71 35 -147 108 -180
173 -46 91 -49 131 -45 716 l3 548 -123 -123 c-403 -399 -890 -972 -1253
-1471 -1635 -2246 -2499 -4900 -2499 -7676 0 -2742 847 -5378 2443 -7599 376
-524 805 -1035 1247 -1484 l185 -189 1 594 c0 591 1 593 23 651 45 114 137
202 250 237 60 19 93 20 745 20 451 0 702 -4 742 -11 126 -23 237 -109 292
-226 l27 -58 0 -640 0 -640 -31 -65 c-54 -115 -160 -197 -284 -220 -37 -7
-276 -9 -720 -5 l-665 6 55 -52 c30 -29 136 -122 235 -207 2050 -1761 4589
-2836 7275 -3082 443 -40 573 -45 1205 -45 633 0 760 5 1210 46 2534 230 4953
1209 6940 2806 203 163 438 362 554 469 l64 59 -44 -3 c-24 -1 -334 1 -689 5
l-645 8 -65 31 c-115 54 -196 159 -220 284 -8 38 -9 238 -5 635 7 644 7 641
74 738 48 68 122 123 200 147 60 19 93 20 745 20 394 0 706 -4 740 -10 123
-20 234 -103 292 -217 l29 -58 5 -589 5 -588 175 178 c1139 1161 2090 2621
2715 4169 533 1317 827 2624 927 4120 17 255 17 1275 0 1530 -100 1497 -394
2802 -927 4121 -627 1553 -1592 3030 -2734 4187 l-156 158 -5 -573 c-5 -627
-2 -596 -68 -697 -41 -62 -104 -111 -182 -143 -52 -21 -71 -23 -345 -25 -159
-2 -495 0 -745 4 l-455 8 -65 31 c-122 58 -201 165 -222 301 -7 46 -8 255 -1
653 l8 585 30 60 c38 79 109 149 193 188 l67 32 674 0 673 0 -53 49 c-233 210
-636 540 -914 746 -1806 1343 -3898 2187 -6115 2469 -235 30 -552 61 -835 82
-140 10 -1279 21 -1390 13z m-1362 -3376 c113 -38 204 -125 249 -235 l23 -58
3 -588 c2 -357 -1 -609 -7 -642 -30 -164 -159 -288 -327 -316 -51 -8 -254 -9
-769 -3 -696 9 -700 10 -749 32 -105 48 -184 137 -218 244 -17 55 -18 104 -18
638 0 391 4 596 11 632 23 106 97 213 184 263 92 55 91 55 860 52 623 -3 716
-5 758 -19z m5334 12 c144 -16 256 -92 319 -217 l29 -58 0 -650 0 -650 -27
-57 c-33 -70 -108 -147 -176 -182 -93 -47 -133 -49 -887 -40 l-700 9 -66 32
c-80 39 -150 111 -187 191 l-27 57 -3 605 c-2 435 0 620 8 660 30 138 142 258
278 295 57 16 1307 21 1439 5z m4466 -3810 c747 -45 1437 -181 2049 -404 388
-141 821 -363 973 -499 128 -113 176 -335 106 -491 -33 -75 -595 -957 -639
-1003 -24 -25 -71 -58 -110 -76 -61 -29 -75 -32 -167 -32 l-100 0 -195 97
c-214 106 -312 146 -530 218 -701 232 -1608 316 -2375 219 -1633 -207 -2825
-1208 -3253 -2734 -212 -755 -226 -1669 -36 -2445 44 -179 145 -485 214 -645
522 -1217 1597 -2013 2990 -2214 268 -39 388 -46 740 -46 513 1 853 40 1300
151 442 109 882 288 1183 483 123 79 175 96 281 89 82 -5 170 -45 224 -101 43
-44 621 -961 644 -1021 58 -149 18 -351 -93 -471 -85 -92 -403 -292 -684 -430
-806 -396 -1765 -618 -2773 -644 -972 -24 -1788 91 -2602 368 -656 223 -1263
553 -1782 967 -852 682 -1474 1590 -1817 2650 -329 1013 -397 2167 -195 3274
13 74 49 236 80 360 438 1776 1636 3170 3329 3875 703 293 1433 454 2300 508
129 8 784 6 938 -3z m-13238 -328 c491 -45 831 -99 1200 -194 566 -144 1116
-388 1540 -683 267 -186 586 -480 769 -710 399 -501 647 -1077 740 -1720 56
-382 50 -856 -15 -1240 -123 -726 -453 -1373 -963 -1890 -714 -722 -1762
-1170 -3041 -1300 -346 -35 -462 -38 -1810 -44 l-1360 -6 -57 -27 c-67 -31
-147 -103 -183 -163 -57 -99 -55 -31 -55 -1601 0 -1375 -1 -1445 -18 -1502
-35 -110 -104 -186 -219 -240 l-58 -27 -840 0 -840 0 -67 33 c-84 41 -167 128
-200 209 l-23 58 0 5380 0 5380 23 57 c25 63 102 154 158 189 20 12 61 30 92
40 55 18 158 18 2577 15 1826 -2 2556 -6 2650 -14z m3380 -13292 c134 -22 239
-102 298 -228 l32 -67 0 -630 0 -630 -23 -57 c-46 -114 -170 -214 -292 -236
-34 -6 -314 -8 -745 -5 -645 4 -694 6 -755 24 -119 35 -212 127 -250 248 -19
60 -20 90 -20 641 0 339 4 599 10 629 13 71 53 147 103 199 53 55 94 80 165
103 53 17 109 18 737 18 400 1 705 -3 740 -9z m5495 -18 c112 -46 187 -122
234 -236 20 -49 21 -69 24 -634 2 -373 -1 -603 -7 -639 -32 -170 -155 -294
-321 -322 -34 -6 -332 -7 -765 -3 l-710 7 -66 32 c-80 39 -150 111 -187 191
l-27 57 0 640 0 640 33 67 c54 109 152 191 259 217 21 5 355 9 758 8 l720 -2
55 -23z" style="FILL:#ed1c24"/>
<path d="M6329 16681 c-166 -23 -309 -160 -340 -324 -6 -34 -8 -667 -7 -1738
l3 -1684 23 -58 c47 -115 139 -202 251 -237 61 -19 95 -20 1297 -20 793 0
1279 4 1361 11 1142 96 2006 756 2203 1685 27 129 38 402 20 540 -110 880
-858 1580 -1895 1774 -268 50 -299 51 -1620 55 -682 2 -1265 0 -1296 -4z" style="FILL:#ed1c24"/>
<path d="M34505 18873 c-617 -38 -1089 -112 -1585 -249 -1266 -351 -2304
-1033 -3076 -2020 -112 -143 -333 -475 -429 -644 -413 -728 -660 -1535 -751
-2450 -21 -220 -30 -840 -15 -1077 73 -1130 394 -2120 967 -2990 334 -506 790
-987 1289 -1362 888 -665 1986 -1075 3205 -1195 493 -49 1073 -49 1580 -1 967
93 1899 382 2597 805 273 166 375 259 424 389 42 112 35 271 -16 371 -53 103
-588 939 -629 982 -60 62 -139 98 -230 105 -96 7 -169 -14 -271 -81 -534 -348
-1308 -579 -2130 -637 -213 -15 -719 -6 -908 15 -737 83 -1347 298 -1892 667
-1166 788 -1757 2201 -1609 3844 118 1308 754 2375 1784 2996 545 328 1192
520 1920 570 215 14 690 6 910 -16 670 -67 1232 -220 1710 -467 143 -73 161
-80 230 -85 130 -10 242 31 326 119 43 45 611 938 639 1004 45 109 39 259 -16
372 -61 126 -187 218 -544 398 -722 364 -1603 577 -2615 634 -158 9 -740 11
-865 3z" style="FILL:#ed1c24"/>
</g>
</svg>
